<svg width="48" height="48" viewBox="0 0 48 48" fill="none" xmlns="http://www.w3.org/2000/svg">
<g clip-path="url(#clip0_184_913)">
<path fill-rule="evenodd" clip-rule="evenodd" d="M27.1883 46.5159L27.1643 46.5199L27.0223 46.5899L26.9823 46.5979L26.9543 46.5899L26.8123 46.5179C26.791 46.5125 26.775 46.5165 26.7643 46.5299L26.7563 46.5499L26.7223 47.4059L26.7323 47.4459L26.7523 47.4719L26.9603 47.6199L26.9903 47.6279L27.0143 47.6199L27.2223 47.4719L27.2463 47.4399L27.2543 47.4059L27.2203 46.5519C27.215 46.5305 27.2043 46.5185 27.1883 46.5159ZM27.7163 46.2899L27.6883 46.2939L27.3203 46.4799L27.3003 46.4999L27.2943 46.5219L27.3303 47.3819L27.3403 47.4059L27.3563 47.4219L27.7583 47.6059C27.7837 47.6125 27.803 47.6072 27.8163 47.5899L27.8243 47.5619L27.7563 46.3339C27.7497 46.3085 27.7363 46.2939 27.7163 46.2899ZM26.2863 46.2939C26.2775 46.2885 26.267 46.2868 26.2569 46.289C26.2469 46.2913 26.2381 46.2973 26.2323 46.3059L26.2203 46.3339L26.1523 47.5619C26.1537 47.5859 26.165 47.6019 26.1863 47.6099L26.2163 47.6059L26.6183 47.4199L26.6383 47.4039L26.6443 47.3819L26.6803 46.5219L26.6743 46.4979L26.6543 46.4779L26.2863 46.2939Z" fill="#6BDC73"/>
<path fill-rule="evenodd" clip-rule="evenodd" d="M12 6C10.9391 6 9.92172 6.42143 9.17157 7.17157C8.42143 7.92172 8 8.93913 8 10V38C8 39.0609 8.42143 40.0783 9.17157 40.8284C9.92172 41.5786 10.9391 42 12 42H40C41.0609 42 42.0783 41.5786 42.8284 40.8284C43.5786 40.0783 44 39.0609 44 38V10C44 8.93913 43.5786 7.92172 42.8284 7.17157C42.0783 6.42143 41.0609 6 40 6H12ZM35.9 19.592C36.2753 19.217 36.4862 18.7082 36.4864 18.1777C36.4866 17.6472 36.276 17.1383 35.901 16.763C35.526 16.3877 35.0172 16.1768 34.4867 16.1766C33.9562 16.1764 33.4473 16.387 33.072 16.762L23.172 26.662L18.93 22.42C18.7443 22.2342 18.5238 22.0868 18.2812 21.9861C18.0385 21.8855 17.7784 21.8337 17.5157 21.8336C16.9852 21.8334 16.4763 22.044 16.101 22.419C15.7257 22.794 15.5148 23.3028 15.5146 23.8333C15.5144 24.3638 15.725 24.8727 16.1 25.248L21.616 30.764C21.8203 30.9684 22.0629 31.1305 22.3299 31.2412C22.5968 31.3518 22.883 31.4087 23.172 31.4087C23.461 31.4087 23.7472 31.3518 24.0141 31.2412C24.2811 31.1305 24.5237 30.9684 24.728 30.764L35.9 19.592Z" fill="#6BDC73"/>
<path fill-rule="evenodd" clip-rule="evenodd" d="M27.1883 46.5159L27.1643 46.5199L27.0223 46.5899L26.9823 46.5979L26.9543 46.5899L26.8123 46.5179C26.791 46.5125 26.775 46.5165 26.7643 46.5299L26.7563 46.5499L26.7223 47.4059L26.7323 47.4459L26.7523 47.4719L26.9603 47.6199L26.9903 47.6279L27.0143 47.6199L27.2223 47.4719L27.2463 47.4399L27.2543 47.4059L27.2203 46.5519C27.215 46.5305 27.2043 46.5185 27.1883 46.5159ZM27.7163 46.2899L27.6883 46.2939L27.3203 46.4799L27.3003 46.4999L27.2943 46.5219L27.3303 47.3819L27.3403 47.4059L27.3563 47.4219L27.7583 47.6059C27.7837 47.6125 27.803 47.6072 27.8163 47.5899L27.8243 47.5619L27.7563 46.3339C27.7497 46.3085 27.7363 46.2939 27.7163 46.2899ZM26.2863 46.2939C26.2775 46.2885 26.267 46.2868 26.2569 46.289C26.2469 46.2913 26.2381 46.2973 26.2323 46.3059L26.2203 46.3339L26.1523 47.5619C26.1537 47.5859 26.165 47.6019 26.1863 47.6099L26.2163 47.6059L26.6183 47.4199L26.6383 47.4039L26.6443 47.3819L26.6803 46.5219L26.6743 46.4979L26.6543 46.4779L26.2863 46.2939Z" fill="#6BDC73"/>
<path fill-rule="evenodd" clip-rule="evenodd" d="M12 6C10.9391 6 9.92172 6.42143 9.17157 7.17157C8.42143 7.92172 8 8.93913 8 10V38C8 39.0609 8.42143 40.0783 9.17157 40.8284C9.92172 41.5786 10.9391 42 12 42H40C41.0609 42 42.0783 41.5786 42.8284 40.8284C43.5786 40.0783 44 39.0609 44 38V10C44 8.93913 43.5786 7.92172 42.8284 7.17157C42.0783 6.42143 41.0609 6 40 6H12ZM35.9 19.592C36.2753 19.217 36.4862 18.7082 36.4864 18.1777C36.4866 17.6472 36.276 17.1383 35.901 16.763C35.526 16.3877 35.0172 16.1768 34.4867 16.1766C33.9562 16.1764 33.4473 16.387 33.072 16.762L23.172 26.662L18.93 22.42C18.7443 22.2342 18.5238 22.0868 18.2812 21.9861C18.0385 21.8855 17.7784 21.8337 17.5157 21.8336C16.9852 21.8334 16.4763 22.044 16.101 22.419C15.7257 22.794 15.5148 23.3028 15.5146 23.8333C15.5144 24.3638 15.725 24.8727 16.1 25.248L21.616 30.764C21.8203 30.9684 22.0629 31.1305 22.3299 31.2412C22.5968 31.3518 22.883 31.4087 23.172 31.4087C23.461 31.4087 23.7472 31.3518 24.0141 31.2412C24.2811 31.1305 24.5237 30.9684 24.728 30.764L35.9 19.592Z" fill="#6BDC73"/>
</g>
<defs>
<clipPath id="clip0_184_913">
<rect width="48" height="48" fill="white"/>
</clipPath>
</defs>
</svg>
