<svg width="19" height="16" viewBox="0 0 19 16" fill="none" xmlns="http://www.w3.org/2000/svg">
<path d="M1.89594 10.707C2.11327 10.8945 2.40798 10.9998 2.71527 10.9998C3.02256 10.9998 3.31728 10.8945 3.5346 10.707L9.27105 5.75705L15.0075 10.707C15.2261 10.8892 15.5188 10.99 15.8227 10.9877C16.1265 10.9854 16.4172 10.8803 16.632 10.6949C16.8469 10.5095 16.9688 10.2586 16.9714 9.99645C16.9741 9.73425 16.8572 9.48165 16.6461 9.29305L10.0904 3.63605C9.87305 3.44858 9.57834 3.34326 9.27105 3.34326C8.96375 3.34326 8.66904 3.44858 8.45172 3.63605L1.89594 9.29305C1.67869 9.48058 1.55664 9.73488 1.55664 10C1.55664 10.2652 1.67869 10.5195 1.89594 10.707Z" fill="black"/>
</svg>
