<svg width="66" height="66" viewBox="0 0 66 66" fill="none" xmlns="http://www.w3.org/2000/svg">
<g clip-path="url(#clip0_28_513)">
<path fill-rule="evenodd" clip-rule="evenodd" d="M33 59.8125C37.707 59.8194 42.3322 58.5813 46.4062 56.2238V47.4375C46.4062 44.976 45.4284 42.6152 43.6878 40.8747C41.9473 39.1341 39.5865 38.1562 37.125 38.1562H28.875C26.4135 38.1562 24.0527 39.1341 22.3122 40.8747C20.5716 42.6152 19.5938 44.976 19.5938 47.4375V56.2238C23.6678 58.5813 28.293 59.8194 33 59.8125ZM52.5938 47.4375V51.3026C56.1607 47.4841 58.5341 42.7066 59.4223 37.5574C60.3105 32.4082 59.6748 27.1116 57.5933 22.3188C55.5117 17.526 52.0751 13.4459 47.7059 10.58C43.3367 7.71406 38.2253 6.18725 33 6.18725C27.7747 6.18725 22.6633 7.71406 18.2941 10.58C13.9249 13.4459 10.4883 17.526 8.40675 22.3188C6.32523 27.1116 5.68949 32.4082 6.5777 37.5574C7.46591 42.7066 9.83934 47.4841 13.4062 51.3026V47.4375C13.405 44.2481 14.3897 41.1363 16.2254 38.5281C18.0612 35.92 20.6582 33.943 23.661 32.868C22.1033 31.0764 21.0939 28.8745 20.7532 26.525C20.4124 24.1755 20.7546 21.7776 21.7391 19.6172C22.7235 17.4568 24.3086 15.6253 26.3053 14.3409C28.3019 13.0566 30.6259 12.3737 33 12.3737C35.3741 12.3737 37.6981 13.0566 39.6947 14.3409C41.6914 15.6253 43.2765 17.4568 44.2609 19.6172C45.2454 21.7776 45.5876 24.1755 45.2468 26.525C44.9061 28.8745 43.8967 31.0764 42.339 32.868C45.3418 33.943 47.9388 35.92 49.7746 38.5281C51.6103 41.1363 52.595 44.2481 52.5938 47.4375ZM33 66C41.7521 66 50.1458 62.5232 56.3345 56.3345C62.5232 50.1458 66 41.7521 66 33C66 24.2479 62.5232 15.8542 56.3345 9.66548C50.1458 3.47678 41.7521 0 33 0C24.2479 0 15.8542 3.47678 9.66548 9.66548C3.47678 15.8542 0 24.2479 0 33C0 41.7521 3.47678 50.1458 9.66548 56.3345C15.8542 62.5232 24.2479 66 33 66ZM39.1875 24.75C39.1875 26.391 38.5356 27.9648 37.3752 29.1252C36.2148 30.2856 34.641 30.9375 33 30.9375C31.359 30.9375 29.7852 30.2856 28.6248 29.1252C27.4644 27.9648 26.8125 26.391 26.8125 24.75C26.8125 23.109 27.4644 21.5352 28.6248 20.3748C29.7852 19.2144 31.359 18.5625 33 18.5625C34.641 18.5625 36.2148 19.2144 37.3752 20.3748C38.5356 21.5352 39.1875 23.109 39.1875 24.75Z" fill="white"/>
</g>
<defs>
<clipPath id="clip0_28_513">
<rect width="66" height="66" fill="white"/>
</clipPath>
</defs>
</svg>
